<?xml version="1.0" encoding="utf-8"?>
<!-- Generator: Adobe Illustrator 21.0.2, SVG Export Plug-In . SVG Version: 6.00 Build 0)  -->
<svg version="1.1" id="Layer_1" xmlns="http://www.w3.org/2000/svg" xmlns:xlink="http://www.w3.org/1999/xlink" x="0px" y="0px"
	 viewBox="0 0 270 86" style="enable-background:new 0 0 270 86;" xml:space="preserve">
<style type="text/css">
	.st0{enable-background:new    ;}
	.st1{fill:#FFFFFF;}
</style>
<g class="st0">
	<path class="st1" d="M32.6,71.6c0,7.3-4.8,12.4-12.2,12.4c-1.7,0-5.6-0.6-6.7-2.2v-8.7c1.4,1.7,3.6,3.1,5.9,3.1
		c2.8,0,4.4-1.9,4.4-4.6V33.9c0-3.8-2.7-7.7-6.8-7.7c-4.2,0-7.2,2.9-7.2,7.2c0,2.4,2.1,5.1,4.2,6.1l-6.4,5.6
		c-3.5-2.1-6.5-7.7-6.5-11.8c0-9,7-15.1,15.9-15.1c9.2,0,15.4,6.5,15.4,15.7V71.6z"/>
	<path class="st1" d="M74.6,66.9c-1.7,1.2-3.9,1.7-6,1.7c-3,0-5.5-1.9-6.8-4.7c-2,3.2-5.2,4.7-8.9,4.7c-7.7,0-12.7-6.3-12.7-13.7
		c0-7.4,5-13.7,12.7-13.7c3.2,0,6.1,1.1,8.1,3.6v-3h7.9v17.4c0,1.6,1.2,2.5,2.8,2.5c1,0,2.1-0.4,2.9-1.1V66.9z M61.1,52.2
		c-1-2.6-3.5-4.5-6.3-4.5c-3.9,0-6.8,3.4-6.8,7.2s2.9,7.2,6.8,7.2c2.8,0,5.3-1.9,6.3-4.5V52.2z"/>
	<path class="st1" d="M103.5,57.8c0,7.1-5.3,10.9-12,10.9c-6.8,0-12.1-3.8-12.1-10.9v-16h7.9v15c0,2.9,1.7,5.2,4.8,5.2
		s4.8-2.3,4.8-5.2v-3.3c-3.2-0.2-5.7-2.9-5.7-6.1c0-3.4,2.8-6.1,6.2-6.1c3.4,0,6.1,2.8,6.1,6.1V57.8z"/>
	<path class="st1" d="M144.8,66.9c-1.7,1.2-3.9,1.7-6,1.7c-3,0-5.5-1.9-6.8-4.7c-2,3.2-5.2,4.7-8.9,4.7c-7.7,0-12.7-6.3-12.7-13.7
		c0-7.4,5-13.7,12.7-13.7c3.2,0,6.1,1.1,8.1,3.6v-3h7.9v17.4c0,1.6,1.2,2.5,2.8,2.5c1,0,2.1-0.4,2.9-1.1V66.9z M131.2,52.2
		c-1-2.6-3.5-4.5-6.3-4.5c-3.9,0-6.8,3.4-6.8,7.2s2.9,7.2,6.8,7.2c2.8,0,5.3-1.9,6.3-4.5V52.2z"/>
	<path class="st1" d="M177.4,71.6c0,7.3-4.8,12.4-12.2,12.4c-1.7,0-5.6-0.6-6.7-2.2v-8.7c1.4,1.7,3.6,3.1,5.9,3.1
		c2.8,0,4.4-1.9,4.4-4.6V33.9c0-3.8-2.7-7.7-6.8-7.7c-4.2,0-7.2,2.9-7.2,7.2c0,2.4,2.1,5.1,4.2,6.1l-6.4,5.6
		c-3.5-2.1-6.5-7.7-6.5-11.8c0-9,7-15.1,15.9-15.1c9.2,0,15.4,6.5,15.4,15.7V71.6z"/>
	<path class="st1" d="M219.3,66.9c-1.7,1.2-3.9,1.7-6,1.7c-3,0-5.5-1.9-6.8-4.7c-2,3.2-5.2,4.7-8.9,4.7c-7.7,0-12.7-6.3-12.7-13.7
		c0-7.4,5-13.7,12.7-13.7c3.2,0,6.1,1.1,8.1,3.6v-3h7.9v17.4c0,1.6,1.2,2.5,2.8,2.5c1,0,2.1-0.4,2.9-1.1V66.9z M205.8,52.2
		c-1-2.6-3.4-4.5-6.3-4.5c-3.9,0-6.8,3.4-6.8,7.2s2.9,7.2,6.8,7.2c2.8,0,5.3-1.9,6.3-4.5V52.2z"/>
	<path class="st1" d="M269.6,66.9c-1.6,1.2-3.9,1.7-5.9,1.7c-4.6,0-7.5-4.1-7.5-8.4v-8.6c0-2.1-1.2-3.9-3.5-3.9
		c-2.2,0-3.6,1.5-4.3,3.5c-0.1,0.2-0.4,1.2-0.4,1.4V68h-7.9V51.6c0-2.1-1.1-3.9-3.4-3.9c-2.3,0-3.6,1.5-4.3,3.5
		c-0.1,0.2-0.3,1.2-0.3,1.3V68h-7.9V41.8h7.9v2.6c1.6-2.1,4.2-3.1,6.8-3.1c3.1,0,5.8,1.4,7.5,4c1.5-2.9,4.8-4,7.9-4
		c5.6,0,9.7,3.9,9.7,9.5v8.4c0,1.6,1.3,2.5,2.8,2.5c1,0,2.1-0.4,2.8-1.1V66.9z"/>
</g>
</svg>
