<?xml version="1.0" encoding="utf-8"?>
<!-- Generator: Adobe Illustrator 21.0.2, SVG Export Plug-In . SVG Version: 6.00 Build 0)  -->
<svg version="1.1" id="Layer_1" xmlns="http://www.w3.org/2000/svg" xmlns:xlink="http://www.w3.org/1999/xlink" x="0px" y="0px"
	 viewBox="0 0 235 75" style="enable-background:new 0 0 235 75;" xml:space="preserve">
<style type="text/css">
	.st0{enable-background:new    ;}
	.st1{fill:#4A3726;}
</style>
<g class="st0">
	<path class="st1" d="M28.4,62.1c0,6.4-4.2,10.8-10.6,10.8c-1.5,0-4.9-0.5-5.8-1.9v-7.6c1.3,1.5,3.1,2.7,5.1,2.7
		c2.4,0,3.8-1.7,3.8-4V29.4c0-3.3-2.3-6.7-5.9-6.7c-3.7,0-6.2,2.5-6.2,6.2c0,2.1,1.8,4.4,3.7,5.3l-5.6,4.9
		c-3.1-1.8-5.6-6.7-5.6-10.3C1.2,21,7.3,15.7,15,15.7c8,0,13.4,5.6,13.4,13.6V62.1z"/>
	<path class="st1" d="M64.9,58c-1.4,1.1-3.4,1.5-5.2,1.5c-2.6,0-4.8-1.7-5.9-4.1c-1.7,2.8-4.5,4.1-7.7,4.1c-6.7,0-11-5.5-11-11.9
		c0-6.4,4.3-11.9,11-11.9c2.8,0,5.3,1,7.1,3.1v-2.6h6.8v15.1c0,1.4,1.1,2.2,2.4,2.2c0.9,0,1.8-0.4,2.5-1V58z M53.1,45.3
		c-0.8-2.3-3-3.9-5.5-3.9c-3.4,0-5.9,2.9-5.9,6.2s2.5,6.2,5.9,6.2c2.5,0,4.6-1.6,5.5-3.9V45.3z"/>
	<path class="st1" d="M90,50.1c0,6.2-4.6,9.5-10.4,9.5c-5.9,0-10.5-3.3-10.5-9.5V36.2h6.8v13.1c0,2.5,1.5,4.6,4.1,4.6
		c2.6,0,4.1-2,4.1-4.6v-2.9c-2.8-0.2-4.9-2.5-4.9-5.3c0-2.9,2.4-5.3,5.4-5.3c2.9,0,5.3,2.4,5.3,5.3V50.1z"/>
	<path class="st1" d="M125.9,58c-1.4,1.1-3.4,1.5-5.2,1.5c-2.6,0-4.8-1.7-5.9-4.1c-1.7,2.8-4.5,4.1-7.7,4.1c-6.7,0-11-5.5-11-11.9
		c0-6.4,4.3-11.9,11-11.9c2.8,0,5.3,1,7.1,3.1v-2.6h6.8v15.1c0,1.4,1.1,2.2,2.4,2.2c0.9,0,1.8-0.4,2.5-1V58z M114.1,45.3
		c-0.8-2.3-3-3.9-5.5-3.9c-3.4,0-5.9,2.9-5.9,6.2s2.5,6.2,5.9,6.2c2.5,0,4.6-1.6,5.5-3.9V45.3z"/>
	<path class="st1" d="M154.3,62.1c0,6.4-4.2,10.8-10.6,10.8c-1.5,0-4.9-0.5-5.8-1.9v-7.6c1.3,1.5,3.1,2.7,5.1,2.7
		c2.4,0,3.8-1.7,3.8-4V29.4c0-3.3-2.3-6.7-5.9-6.7c-3.7,0-6.2,2.5-6.2,6.2c0,2.1,1.8,4.4,3.7,5.3l-5.6,4.9
		c-3.1-1.8-5.6-6.7-5.6-10.3c0-7.9,6.1-13.1,13.8-13.1c8,0,13.4,5.6,13.4,13.6V62.1z"/>
	<path class="st1" d="M190.7,58c-1.4,1.1-3.4,1.5-5.2,1.5c-2.6,0-4.8-1.7-5.9-4.1c-1.7,2.8-4.5,4.1-7.7,4.1c-6.7,0-11-5.5-11-11.9
		c0-6.4,4.3-11.9,11-11.9c2.8,0,5.3,1,7.1,3.1v-2.6h6.8v15.1c0,1.4,1.1,2.2,2.4,2.2c0.9,0,1.8-0.4,2.5-1V58z M179,45.3
		c-0.8-2.3-3-3.9-5.5-3.9c-3.4,0-5.9,2.9-5.9,6.2s2.5,6.2,5.9,6.2c2.5,0,4.6-1.6,5.5-3.9V45.3z"/>
	<path class="st1" d="M234.4,58c-1.4,1.1-3.4,1.5-5.2,1.5c-4,0-6.5-3.6-6.5-7.3v-7.5c0-1.8-1-3.4-3-3.4c-1.9,0-3.1,1.3-3.7,3.1
		c-0.1,0.2-0.4,1-0.4,1.2V59h-6.8V44.7c0-1.8-1-3.4-2.9-3.4c-2,0-3.1,1.3-3.8,3.1c-0.1,0.2-0.3,1-0.3,1.1V59h-6.8V36.2h6.8v2.2
		c1.4-1.9,3.7-2.7,5.9-2.7c2.7,0,5,1.3,6.5,3.5c1.3-2.5,4.1-3.5,6.8-3.5c4.9,0,8.5,3.4,8.5,8.3v7.3c0,1.4,1.1,2.2,2.5,2.2
		c0.9,0,1.8-0.4,2.5-1V58z"/>
</g>
</svg>
