<svg xmlns="http://www.w3.org/2000/svg" viewBox="0 0 44.13 36.08"><defs><style>.cls-1{fill:none;stroke:#fff;stroke-linecap:round;stroke-linejoin:round;stroke-width:2px;fill-rule:evenodd;}</style></defs><title>Asset 2</title><g id="Layer_2" data-name="Layer 2"><g id="Layer_1-2" data-name="Layer 1"><path class="cls-1" d="M38.39,6.31S41.77,6,43.13,5c0,0-.32,1.17-4.39,4.85,0,0,1.37,19.89-19.49,24.76,0,0-10.58,2.26-18.25-3.5,0,0,8,1.43,12.54-3.57a8.21,8.21,0,0,1-7.67-5.88,7,7,0,0,0,3.51-.12A8.41,8.41,0,0,1,2.9,13a5.52,5.52,0,0,0,3.39,1.07S.35,9,4,2.73c0,0,8,9.41,17.83,8.86A8.48,8.48,0,0,1,36.12,3.53a9.71,9.71,0,0,0,5.76-1.84S42,3.51,38.39,6.31Z"/></g></g></svg>