<?xml version="1.0" encoding="utf-8"?>
<!-- Generator: Adobe Illustrator 21.0.2, SVG Export Plug-In . SVG Version: 6.00 Build 0)  -->
<svg version="1.1" id="Layer_1" xmlns="http://www.w3.org/2000/svg" xmlns:xlink="http://www.w3.org/1999/xlink" x="0px" y="0px"
	 viewBox="0 0 560 288" style="enable-background:new 0 0 560 288;" xml:space="preserve">
<style type="text/css">
	.st0{fill:#FFFFFF;}
</style>
<g>
	<path class="st0" d="M172.7,192.5c-17.6,19.5-34.9,21.5-60,21.5H14v-28.5c16.7,0,28-8.7,28-25.9V87.2c0-34.2,24.5-58.4,58.6-58.4
		c34.8,0,59.1,20.5,59.1,56.3c0,15.1-11.1,36.3-24.2,44l-23.1-19.8c9.2-4.9,15.1-13.4,15.1-24.2c0-15.5-11.6-26.2-26.9-26.2
		c-14.9,0-26.2,14.1-26.2,28.3v74c0,10.3-4.7,18.2-12.3,25h48.7c19.1,0,30.4-2.8,45-15.1L172.7,192.5z"/>
	<path class="st0" d="M234,216.6c-28.3,0-51.3-23.1-51.3-51.3c0-28.3,22.9-51.4,51.3-51.4c28.3,0,51.3,23.1,51.3,51.4
		C285.3,193.5,262.3,216.6,234,216.6z M260.6,164.2c-2.8,1.6-6.3,2.6-9.6,2.6c-11.1,0-20.3-9-20.3-20c0-2.8,0.5-5.4,1.6-7.6
		c-13.9,1-23.6,12.7-23.6,26.4c0,14.4,10.8,26.2,25.5,26.2c14.6,0,27.3-11.8,26.4-26.2V164.2z"/>
	<path class="st0" d="M413.3,232.6c0,19.1-13.9,41.2-34.9,41.2l-11.1-24.5c8.7,0,16.7-8,16.7-16.7v-30.4
		c-7.6,9.7-18.6,14.1-30.9,14.1c-28.8,0-47.3-23.5-47.3-51.3c0-27.5,18.6-50.9,47.3-50.9c12.3,0,23.1,4.3,30.9,14.1V116h29.4V232.6z
		 M384,156.7c0-0.5-1.6-3.8-1.7-4.3c-4.2-8.2-12.7-13.9-22.1-13.9c-14.4,0-25.2,12.7-25.2,26.8s10.8,26.8,25.2,26.8
		c9.6,0,18.1-5.7,22.1-13.9c0.2-0.5,1.7-3.6,1.7-4.3V156.7z"/>
	<path class="st0" d="M492.7,216.6c-28.3,0-51.3-23.1-51.3-51.3c0-28.3,22.9-51.4,51.3-51.4s51.3,23.1,51.3,51.4
		C544,193.5,521.1,216.6,492.7,216.6z M519.3,164.2c-2.8,1.6-6.3,2.6-9.6,2.6c-11.1,0-20.3-9-20.3-20c0-2.8,0.5-5.4,1.6-7.6
		c-13.9,1-23.6,12.7-23.6,26.4c0,14.4,10.8,26.2,25.5,26.2c14.8,0,27.3-11.8,26.4-26.2V164.2z"/>
</g>
</svg>
